<svg width="471" height="264" viewBox="0 0 471 264" fill="none" xmlns="http://www.w3.org/2000/svg" filter="invert(var(--invert_amount))">
<path d="M50 157.833V154.535C50 140.819 38.7153 129.535 25 129.535C11.2847 129.535 0 140.819 0 154.535V157.833H50Z" fill="#E8C966"/>
<path d="M13.0215 148.806V157.833" stroke="#414042" stroke-miterlimit="10"/>
<path d="M38.3672 148.806V157.833" stroke="#414042" stroke-miterlimit="10"/>
<path d="M10.7641 118.597H9.89605C8.85438 118.597 7.98633 117.729 7.98633 116.687V113.562C7.98633 112.521 8.85438 111.653 9.89605 111.653H10.7641V118.597Z" fill="white"/>
<path d="M10.7641 118.597H9.89605C8.85438 118.597 7.98633 117.729 7.98633 116.687V113.562C7.98633 112.521 8.85438 111.653 9.89605 111.653H10.7641V118.597Z" stroke="#414042" stroke-miterlimit="10" stroke-linecap="round"/>
<path d="M10.7617 102.278V118.771C10.7617 127.451 17.8798 134.569 26.5603 134.569C35.2409 134.569 42.3589 127.451 42.3589 118.771V102.278L24.477 95.1597L10.7617 102.278Z" fill="white"/>
<path d="M10.7617 102.278V118.771C10.7617 127.451 17.8798 134.569 26.5603 134.569C35.2409 134.569 42.3589 127.451 42.3589 118.771V102.278L24.477 95.1597L10.7617 102.278Z" stroke="#414042" stroke-miterlimit="10" stroke-linecap="round"/>
<path d="M45.3134 105.577C45.3134 95.3335 36.98 87.1738 26.9106 87.1738C16.6675 87.1738 8.50781 95.5072 8.50781 105.577V110.438L23.9592 99.3266L40.6259 122.417V143.25L45.3134 152.799V127.972V105.577Z" fill="#BE927C"/>
<path d="M26.9106 87C16.6675 87 8.50781 95.3333 8.50781 105.403V110.264L23.9592 99.1528L40.6259 122.417V144.118L44.6189 151.41C45.1398 152.278 45.487 152.104 45.487 151.236V127.972V105.403C45.3134 95.3333 36.98 87 26.9106 87Z" stroke="#414042" stroke-miterlimit="10"/>
<path d="M26.5634 156.965C27.0428 156.965 27.4314 156.577 27.4314 156.097C27.4314 155.618 27.0428 155.229 26.5634 155.229C26.084 155.229 25.6953 155.618 25.6953 156.097C25.6953 156.577 26.084 156.965 26.5634 156.965Z" fill="#414042"/>
<path d="M26.5634 151.93C27.0428 151.93 27.4314 151.542 27.4314 151.062C27.4314 150.583 27.0428 150.194 26.5634 150.194C26.084 150.194 25.6953 150.583 25.6953 151.062C25.6953 151.542 26.084 151.93 26.5634 151.93Z" fill="#414042"/>
<path d="M26.5634 146.722C27.0428 146.722 27.4314 146.333 27.4314 145.854C27.4314 145.374 27.0428 144.986 26.5634 144.986C26.084 144.986 25.6953 145.374 25.6953 145.854C25.6953 146.333 26.084 146.722 26.5634 146.722Z" fill="#414042"/>
<path d="M26.5634 141.688C27.0428 141.688 27.4314 141.299 27.4314 140.819C27.4314 140.34 27.0428 139.951 26.5634 139.951C26.084 139.951 25.6953 140.34 25.6953 140.819C25.6953 141.299 26.084 141.688 26.5634 141.688Z" fill="#414042"/>
<path d="M373 130L347.847 115.834L348.156 144.7L373 130ZM92.0267 135.5L350.528 132.74L350.475 127.74L91.9733 130.5L92.0267 135.5Z" fill="#222222"/>
<circle cx="226.5" cy="129.5" r="46.5" fill="#222222"/>
<path d="M196.436 120.237V141H204.086C210.396 141 214.658 137.612 214.658 130.619C214.658 123.625 210.396 120.237 204.086 120.237H196.436ZM200.753 137.394V123.844H204.195C207.992 123.844 210.205 126.248 210.205 130.619C210.205 135.017 207.992 137.394 204.195 137.394H200.753ZM237.019 141L230.134 120.237H222.212L215.327 141H219.862L221.638 135.4H230.708L232.484 141H237.019ZM226.173 121.112L229.56 131.793H222.785L226.173 121.112ZM248.038 141.328C254.158 141.328 258.419 137.148 258.419 130.619C258.419 124.089 254.158 119.91 248.038 119.91C241.919 119.91 237.657 124.089 237.657 130.619C237.657 137.148 241.919 141.328 248.038 141.328ZM248.038 137.913C244.459 137.913 242.11 135.044 242.11 130.619C242.11 126.193 244.459 123.325 248.038 123.325C251.617 123.325 253.966 126.193 253.966 130.619C253.966 135.044 251.617 137.913 248.038 137.913Z" fill="white"/>
<line x1="191.213" y1="85.0004" x2="173.307" y2="58.6876" stroke="#222222" stroke-width="3"/>
<line x1="259.701" y1="83.9629" x2="275.701" y2="56.2501" stroke="#222222" stroke-width="3"/>
<line x1="173.701" y1="199.963" x2="189.701" y2="172.25" stroke="#222222" stroke-width="3"/>
<line x1="259.061" y1="174.939" x2="281.688" y2="197.567" stroke="#222222" stroke-width="3"/>
<path d="M325.35 249.535H298.412V228.428H337.549V249.535H335.08H334.83V249.785V260.374C334.83 260.498 334.775 260.539 334.742 260.551C334.703 260.566 334.629 260.566 334.549 260.491L325.542 249.626L325.467 249.535H325.35Z" fill="white" stroke="black" stroke-width="0.5"/>
<path d="M333.077 233.759H304.172" stroke="#414042" stroke-width="1.43094" stroke-miterlimit="10"/>
<path d="M333.077 238.481H304.172" stroke="#414042" stroke-width="1.43094" stroke-miterlimit="10"/>
<path d="M333.078 243.346H315.906" stroke="#414042" stroke-width="1.43094" stroke-miterlimit="10"/>
<path d="M286 212.867V235.333H288.862V246.351C288.862 246.78 289.291 246.923 289.577 246.637L299.022 235.333H327.354V212.867H286Z" fill="#222222"/>
<path d="M291.008 218.591H321.058" stroke="white" stroke-width="1.43094" stroke-miterlimit="10"/>
<path d="M289.578 207H302.17" stroke="#414042" stroke-width="1.43094" stroke-miterlimit="10"/>
<path d="M311.043 207H305.033" stroke="#414042" stroke-width="1.43094" stroke-miterlimit="10"/>
<path d="M317.194 210.721H299.736" stroke="#414042" stroke-width="1.43094" stroke-miterlimit="10"/>
<path d="M291.008 223.599H321.058" stroke="white" stroke-width="1.43094" stroke-miterlimit="10"/>
<path d="M291.008 228.607H308.751" stroke="white" stroke-width="1.43094" stroke-miterlimit="10"/>
<path d="M323.777 253.219H308.18" stroke="#414042" stroke-width="1.43094" stroke-miterlimit="10"/>
<path d="M326.494 256.654H320.484" stroke="#414042" stroke-width="1.43094" stroke-miterlimit="10"/>
<path d="M302.17 256.654H317.91" stroke="#414042" stroke-width="1.43094" stroke-miterlimit="10"/>
<path d="M292.726 259.802H290.723V258.8C290.723 258.371 290.723 257.942 290.866 257.799C291.009 257.512 291.152 257.226 291.581 256.94L292.869 255.652C293.155 255.366 293.298 255.08 293.298 254.651C293.298 254.221 293.155 253.935 292.869 253.649C292.583 253.363 292.297 253.22 291.867 253.22C291.438 253.22 291.009 253.363 290.723 253.649C290.437 253.935 290.293 254.221 290.15 254.794H288.004C288.147 253.792 288.576 252.933 289.149 252.361C289.864 251.789 290.723 251.502 291.724 251.502C292.726 251.502 293.585 251.789 294.157 252.361C294.729 252.933 295.159 253.649 295.159 254.651C295.159 255.366 295.016 255.938 294.586 256.368C294.3 256.654 294.157 256.797 294.157 256.94L293.728 257.369L293.298 257.799L293.012 258.085C292.869 258.371 292.726 258.657 292.726 259.086V259.802ZM291.867 263.665C291.438 263.665 291.152 263.522 290.866 263.236C290.58 262.95 290.437 262.664 290.437 262.378C290.437 262.091 290.58 261.662 290.866 261.519C291.152 261.233 291.438 261.09 291.724 261.09C292.011 261.09 292.44 261.233 292.726 261.519C293.012 261.805 293.155 262.091 293.155 262.378C293.155 262.664 293.012 263.093 292.726 263.236C292.583 263.522 292.154 263.665 291.867 263.665Z" fill="#9DCC6B"/>
<path d="M334.366 219.878C334.08 219.878 333.65 219.735 333.507 219.449C333.221 219.163 333.078 218.877 333.078 218.59C333.078 218.304 333.221 217.875 333.507 217.732C333.794 217.446 334.08 217.303 334.366 217.303C334.652 217.303 335.081 217.446 335.225 217.732C335.368 218.018 335.654 218.304 335.654 218.59C335.654 218.877 335.511 219.306 335.225 219.449C335.081 219.878 334.652 219.878 334.366 219.878ZM333.221 207.572H335.654V209.719L335.081 215.872H333.651L333.078 209.719V207.572H333.221Z" fill="#FF7E50"/>
<path d="M168.53 53.2999V51.3979C168.53 43.5787 162.084 37.1331 154.265 37.1331C146.446 37.1331 140 43.5787 140 51.3979V53.2999H168.53Z" fill="#E6E7E8"/>
<path d="M154.475 37.1331C146.867 37.1331 140.633 43.3673 140.633 50.9753V52.8773H162.506" stroke="#414042" stroke-miterlimit="10"/>
<path d="M144.332 24.242V32.3783C144.332 37.6616 148.664 41.9939 153.948 41.9939C159.231 41.9939 163.563 37.6616 163.563 32.3783V24.7704C162.401 18.1134 156.378 16.1058 153.419 16.2114C150.566 16.2114 145.283 18.9588 144.332 24.242Z" fill="white"/>
<path d="M163.459 27.0949C163.459 27.0949 157.753 28.3629 150.568 24.1363C150.568 24.1363 146.764 27.4119 144.334 27.3062C144.334 27.3062 142.749 17.4793 153.527 16C153.527 16.1057 163.671 15.7887 163.459 27.0949Z" fill="#D1D3D4"/>
<path d="M144.332 24.242V32.3783C144.332 37.6616 148.664 41.9939 153.948 41.9939C159.231 41.9939 163.563 37.6616 163.563 32.3783V24.7704C162.401 18.1134 156.378 16.1058 153.419 16.2114C150.566 16.2114 145.283 18.9588 144.332 24.242V24.242Z" stroke="#414042" stroke-miterlimit="10"/>
<path d="M167.791 52.9829C171.876 52.9829 175.188 49.6713 175.188 45.5863C175.188 41.5013 171.876 38.1897 167.791 38.1897C163.706 38.1897 160.395 41.5013 160.395 45.5863C160.395 49.6713 163.706 52.9829 167.791 52.9829Z" fill="#E8C966"/>
<path d="M167.791 52.9829C171.876 52.9829 175.188 49.6713 175.188 45.5863C175.188 41.5013 171.876 38.1897 167.791 38.1897C163.706 38.1897 160.395 41.5013 160.395 45.5863C160.395 49.6713 163.706 52.9829 167.791 52.9829Z" stroke="#414042" stroke-miterlimit="10"/>
<path d="M167.791 50.6583C170.592 50.6583 172.863 48.3875 172.863 45.5864C172.863 42.7852 170.592 40.5144 167.791 40.5144C164.99 40.5144 162.719 42.7852 162.719 45.5864C162.719 48.3875 164.99 50.6583 167.791 50.6583Z" fill="#E8C966"/>
<path d="M167.155 47.9108V46.2202H165.465V45.0578H167.155V43.3672H168.529V45.0578H170.22V46.2202H168.529V47.9108H167.155Z" fill="#414042"/>
<path d="M157.4 250.44V238.592C157.4 234.372 160.809 230.964 165.029 230.964" stroke="#414042" stroke-width="1.62305" stroke-miterlimit="10"/>
<path d="M136.623 211H192.294V235.995H136.623V211Z" fill="#222222"/>
<path d="M168.597 235.995H161.131" stroke="#414042" stroke-width="1.62305" stroke-miterlimit="10"/>
<path d="M154.964 235.995H136.623V211H192.294V235.995H175.739" stroke="#414042" stroke-width="1.62305" stroke-miterlimit="10"/>
<path d="M164.214 232.262C169.054 232.262 172.978 228.338 172.978 223.498C172.978 218.657 169.054 214.733 164.214 214.733C159.373 214.733 155.449 218.657 155.449 223.498C155.449 228.338 159.373 232.262 164.214 232.262Z" fill="white"/>
<path d="M142.467 223.498H152.043" stroke="white" stroke-width="1.62305" stroke-miterlimit="10"/>
<path d="M176.551 223.498H185.964" stroke="white" stroke-width="1.62305" stroke-miterlimit="10"/>
<path d="M164.865 231.126C169.085 231.126 172.494 234.534 172.494 238.754V250.602" stroke="#414042" stroke-width="1.62305" stroke-miterlimit="10"/>
<path d="M173.468 262.938H156.102C155.29 262.938 154.479 262.126 154.479 261.315V243.948C154.479 242.974 155.29 242.325 156.102 242.325H173.468C174.28 242.325 175.091 242.974 175.091 243.948V261.315C175.091 262.289 174.442 262.938 173.468 262.938Z" fill="#E8C966"/>
<path d="M174.117 242.325V260.828C174.117 261.477 173.631 261.964 172.981 261.964H154.479C154.479 262.613 154.965 263.1 155.615 263.1H174.117C174.767 263.1 175.254 262.613 175.254 261.964V243.461C175.091 242.812 174.604 242.325 174.117 242.325Z" fill="#F7BC5D"/>
<path d="M164.866 252.712C166.301 252.712 167.463 251.55 167.463 250.115C167.463 248.681 166.301 247.519 164.866 247.519C163.432 247.519 162.27 248.681 162.27 250.115C162.27 251.55 163.432 252.712 164.866 252.712Z" fill="#414042"/>
<path d="M164.865 257.419C164.215 257.419 163.729 256.932 163.729 256.283V251.414C163.729 250.765 164.215 250.278 164.865 250.278C165.514 250.278 166.001 250.765 166.001 251.414V256.283C166.001 256.932 165.352 257.419 164.865 257.419Z" fill="#414042"/>
<path d="M161 224.094L164.48 229L167.959 224.094L164.48 226.213L161 224.094Z" stroke="#414042" stroke-width="0.550885" stroke-linecap="round" stroke-linejoin="round"/>
<path d="M161 222.848L164.48 224.965L167.959 222.848L164.48 221.307L161 222.848Z" stroke="#414042" stroke-width="0.550885" stroke-linecap="round" stroke-linejoin="round"/>
<path d="M161 222.848L164.48 221.307L167.959 222.848L164.48 217L161 222.848Z" stroke="#414042" stroke-width="0.550885" stroke-linecap="round" stroke-linejoin="round"/>
<path d="M284.857 25.6802L286.1 18.6388C285.41 16.982 284.995 15.1872 284.995 13.2543C284.995 5.93681 290.932 0 298.25 0C305.567 0 311.504 5.93681 311.504 13.2543C311.504 20.5717 305.567 26.5086 298.25 26.5086C295.627 26.5086 293.279 25.8182 291.208 24.4376L284.857 25.6802Z" fill="#222222"/>
<path d="M263.594 8.97437H283.061" stroke="#414042" stroke-width="1.38065" stroke-miterlimit="10"/>
<path d="M256 12.7021H270.221" stroke="#414042" stroke-width="1.38065" stroke-miterlimit="10"/>
<path d="M276.849 12.7021H272.293" stroke="#414042" stroke-width="1.38065" stroke-miterlimit="10"/>
<path d="M260.695 16.9824H279.748" stroke="#414042" stroke-width="1.38065" stroke-miterlimit="10"/>
<path d="M293.829 37.2776H293.138C294.105 37.2776 294.933 36.4492 294.933 35.4828C294.933 34.5163 294.105 33.6879 293.138 33.6879H282.093C282.093 33.6879 283.612 29.9602 283.612 28.1653C283.612 27.3369 283.75 25.6801 283.336 24.9898C283.198 24.7137 281.679 24.7137 281.541 24.9898C281.541 24.9898 280.16 29.2698 279.332 30.3744C278.779 31.0647 276.847 33.5499 276.847 33.5499H273.809L272.152 45.1474H276.018C276.432 45.1474 276.847 45.2854 276.985 45.5616L278.779 47.3564C279.056 47.6325 279.608 47.9087 280.022 47.9087H290.239C291.205 47.9087 292.034 47.0803 292.034 46.1138C292.034 45.1474 291.205 44.319 290.239 44.319H292.172C293.138 44.319 293.967 43.4906 293.967 42.5241C293.967 41.5577 293.138 40.7293 292.172 40.7293H294.105C295.071 40.7293 295.9 39.9009 295.9 38.9344C295.9 37.968 294.795 37.2776 293.829 37.2776Z" fill="white"/>
<path d="M281.959 32.1695H282.511C282.925 30.9269 283.478 29.2701 283.478 28.1656V26.2327V26.6469C283.478 28.4417 281.959 32.1695 281.959 32.1695Z" fill="#F1F2F2"/>
<path d="M289.964 46.5279H279.747C279.333 46.5279 278.781 46.3898 278.505 45.9757L276.848 44.1808C276.572 43.9047 276.158 43.7666 275.881 43.7666H272.154L272.016 45.2853H275.881C276.296 45.2853 276.71 45.4234 276.848 45.6995L278.643 47.4944C278.919 47.7705 279.471 48.0466 279.885 48.0466H290.102C291.069 48.0466 291.897 47.2182 291.897 46.2518C291.897 45.9756 291.897 45.6995 291.759 45.5615C291.345 45.9756 290.793 46.5279 289.964 46.5279Z" fill="#E6E7E8"/>
<path d="M290.518 40.7291H293.555C294.521 40.7291 295.35 39.9007 295.35 38.9343C295.35 37.9678 294.521 37.1394 293.555 37.1394H290.518" stroke="#414042" stroke-width="1.38065" stroke-miterlimit="10"/>
<path d="M287.342 44.319H291.622C292.588 44.319 293.417 43.4906 293.417 42.5241C293.417 41.5576 292.588 40.7292 291.622 40.7292H287.342" stroke="#414042" stroke-width="1.38065" stroke-miterlimit="10"/>
<path d="M288.172 44.3188H289.829C290.795 44.3188 291.624 45.1472 291.624 46.1137C291.624 47.0802 290.795 47.9085 289.829 47.9085H279.612C279.198 47.9085 278.645 47.7705 278.369 47.3563L276.574 45.5614C276.298 45.2853 275.884 45.1472 275.608 45.1472H271.742" stroke="#414042" stroke-width="1.38065" stroke-miterlimit="10"/>
<path d="M287.342 37.2776H292.864C293.831 37.2776 294.659 36.4492 294.659 35.4828C294.659 34.5163 293.831 33.6879 292.864 33.6879H281.819C281.819 33.6879 283.338 29.9602 283.338 28.1653C283.338 27.3369 283.476 25.6801 283.062 24.9898C282.924 24.7137 281.405 24.7137 281.267 24.9898C281.267 24.9898 279.886 29.2698 279.058 30.3744C278.506 31.0647 276.573 33.5499 276.573 33.5499H273.535" stroke="#414042" stroke-width="1.38065" stroke-miterlimit="10"/>
<path d="M262.904 31.7551H274.778V46.9423H262.904V31.7551Z" fill="#9DCC6B"/>
<path d="M262.904 31.7551H274.778V36.3113H262.904V31.7551Z" fill="#B5E08C"/>
<path d="M298.662 37.2724L299.257 37.2724C298.425 37.2724 298.57 38.1551 298.57 38.9872C298.57 39.8194 298.425 40.3632 299.257 40.3632L309.277 40.3632C309.277 40.3632 307.867 43.358 307.867 44.9034C307.867 45.6166 308.356 46.8445 308.713 47.4389C308.831 47.6767 310.284 48.0903 310.403 47.8525C310.403 47.8525 311.38 44.1642 312.093 43.2131C312.569 42.6188 313.284 40.4821 313.284 40.4821L315.9 40.4821L317.326 30.4963L313.998 30.4963C313.641 30.4963 313.284 30.3774 313.165 30.1397L311.62 28.5942C311.382 28.3565 310.907 28.1187 310.55 28.1187L301.753 28.1187C300.921 28.1187 300.208 28.832 300.208 29.6642C300.208 30.4963 300.921 31.2096 301.753 31.2096L300.089 31.2096C299.257 31.2096 298.543 31.9228 298.543 32.755C298.543 33.5871 299.257 34.3004 300.089 34.3004L299.564 34.3004C298.732 34.3004 298.019 35.0137 298.019 35.8458C298.019 36.678 297.83 37.2724 298.662 37.2724Z" fill="white"/>
<path d="M308.883 41.6712L308.407 41.6712C308.051 42.7411 307.575 44.1676 307.575 45.1187L307.575 46.783L307.575 46.4263C307.575 44.8809 308.883 41.6712 308.883 41.6712Z" fill="#F1F2F2"/>
<path d="M301.991 29.3075L310.788 29.3075C311.145 29.3075 311.62 29.4264 311.858 29.783L313.285 31.3284C313.522 31.5662 313.879 31.6851 314.117 31.6851L317.326 31.6851L317.445 30.3774L314.117 30.3774C313.76 30.3774 313.403 30.2585 313.285 30.0208L311.739 28.4753C311.501 28.2376 311.026 27.9998 310.669 27.9998L301.872 27.9998C301.04 27.9998 300.327 28.7131 300.327 29.5452C300.327 29.783 300.327 30.0208 300.446 30.1396C300.802 29.783 301.278 29.3075 301.991 29.3075Z" fill="#E6E7E8"/>
<path d="M301.516 34.3005L299.907 34.3005C299.075 34.3005 298.362 35.0138 298.362 35.8459C298.362 36.6781 299.075 37.3914 299.907 37.3914L301.516 37.3914" stroke="#414042" stroke-width="1.18878" stroke-miterlimit="10"/>
<path d="M304.25 31.2095L300.565 31.2095C299.733 31.2095 299.019 31.9227 299.019 32.7549C299.019 33.587 299.733 34.3003 300.565 34.3003L304.25 34.3003" stroke="#414042" stroke-width="1.18878" stroke-miterlimit="10"/>
<path d="M303.533 31.21L302.107 31.21C301.274 31.21 300.561 30.4967 300.561 29.6645C300.561 28.8324 301.274 28.1191 302.107 28.1191L310.904 28.1191C311.26 28.1191 311.736 28.238 311.974 28.5946L313.519 30.1401C313.757 30.3778 314.113 30.4967 314.351 30.4967L317.68 30.4967" stroke="#414042" stroke-width="1.18878" stroke-miterlimit="10"/>
<path d="M304.872 37.2723L300.117 37.2723C299.285 37.2723 298.572 38.155 298.572 38.9872C298.572 39.8193 299.285 40.3632 300.117 40.3632L309.627 40.3632C309.627 40.3632 308.319 43.5729 308.319 45.1183C308.319 45.8316 308.357 46.8445 308.714 47.4389C308.833 47.6766 310.286 47.6767 310.404 47.4389C310.404 47.4389 310.66 46.0693 311.374 45.1183C311.849 44.5239 314.144 40.482 314.144 40.482L316.76 40.482" stroke="#414042" stroke-width="1.18878" stroke-miterlimit="10"/>
<path d="M325.289 42.0273L315.066 42.0273L315.066 28.9507L325.289 28.9507L325.289 42.0273Z" fill="#FF7E50"/>
<path d="M325.289 42.0273L315.066 42.0273L315.066 38.1044L325.289 38.1044L325.289 42.0273Z" fill="#FFB398"/>
<path d="M290.654 14.911C291.721 14.911 292.587 14.0456 292.587 12.9781C292.587 11.9106 291.721 11.0452 290.654 11.0452C289.586 11.0452 288.721 11.9106 288.721 12.9781C288.721 14.0456 289.586 14.911 290.654 14.911Z" stroke="white" stroke-width="1.38065" stroke-miterlimit="10"/>
<path d="M298.111 14.911C299.178 14.911 300.044 14.0456 300.044 12.9781C300.044 11.9106 299.178 11.0452 298.111 11.0452C297.043 11.0452 296.178 11.9106 296.178 12.9781C296.178 14.0456 297.043 14.911 298.111 14.911Z" stroke="white" stroke-width="1.38065" stroke-miterlimit="10"/>
<path d="M305.702 14.911C306.77 14.911 307.635 14.0456 307.635 12.9781C307.635 11.9106 306.77 11.0452 305.702 11.0452C304.635 11.0452 303.77 11.9106 303.77 12.9781C303.77 14.0456 304.635 14.911 305.702 14.911Z" stroke="white" stroke-width="1.38065" stroke-miterlimit="10"/>
<path d="M411.151 110.888C417.142 108.22 422.111 108.001 425.807 109.372C429.519 110.748 432.02 113.752 433.017 117.661C430.499 120.097 427.917 120.887 425.453 120.733C422.907 120.574 420.437 119.403 418.254 117.875C416.075 116.35 414.216 114.492 412.899 113.01C412.241 112.27 411.721 111.626 411.365 111.168C411.285 111.065 411.214 110.971 411.151 110.888Z" fill="white" stroke="black" stroke-width="0.910734"/>
<path d="M455.888 116.217C455.826 116.299 455.756 116.391 455.677 116.492C455.322 116.95 454.801 117.593 454.144 118.333C452.826 119.816 450.967 121.673 448.788 123.198C446.605 124.726 444.135 125.897 441.59 126.056C439.128 126.21 436.548 125.422 434.032 122.991C434.488 121.4 435.226 119.903 436.212 118.572C438.606 115.349 441.755 113.981 445.247 113.827C448.601 113.679 452.279 114.651 455.888 116.217Z" fill="white" stroke="black" stroke-width="0.910734"/>
<path d="M438.498 118.723C440.219 118.101 442.529 118.133 445.619 119.577C444.271 121.203 442.554 122.854 440.705 123.597C439.724 123.992 438.718 124.126 437.71 123.877C436.756 123.643 435.768 123.057 434.778 121.962C435.596 120.625 436.788 119.34 438.498 118.723Z" fill="white" stroke="black" stroke-width="0.710862"/>
<path d="M469.368 87.4344C460.527 102.175 452.528 105.439 447.249 104.091C441.871 102.718 438.948 96.4992 440.399 91.6712L440.399 91.6709C441.773 87.0927 446.645 85.1611 452.59 84.8632C458.279 84.5781 464.732 85.8114 469.368 87.4344Z" fill="#9DCC6B" stroke="black" stroke-width="0.910734"/>
<path d="M422.007 95.8482L422.007 95.8482L422.003 95.8509C419.282 97.4632 415.719 97.7318 411.539 95.4525C407.415 93.2031 402.694 88.4702 397.673 80.1031C400.789 78.9984 404.781 78.0541 408.826 77.6565C413.104 77.236 417.396 77.4314 420.766 78.6583L420.767 78.6588C425.303 80.2925 427.05 83.7286 426.966 87.1788C426.881 90.6693 424.92 94.1683 422.007 95.8482Z" fill="white" stroke="black" stroke-width="0.910734"/>
<path d="M425.586 87.7535C425.924 89.9162 425.218 92.2632 423.919 94.0348C419.945 94.9344 414.236 92.4297 407.733 82.1591C411.577 81.389 416.652 80.9739 420.751 82.4045C423.834 83.5204 425.245 85.5701 425.586 87.7535Z" fill="white" stroke="#222222" stroke-width="0.910734"/>
<path d="M425.5 89.5032C425.675 90.5036 425.321 91.6111 424.635 92.4726C422.489 92.8701 419.378 91.6836 415.788 86.7556C417.941 86.402 420.656 86.2492 422.859 86.9339C424.586 87.491 425.323 88.4911 425.5 89.5032Z" fill="white" stroke="#222222" stroke-width="0.910734"/>
<path d="M434.454 108.089L434.776 108.411L434.454 108.089C434.206 108.337 433.871 108.476 433.521 108.476C433.171 108.476 432.835 108.337 432.588 108.089L432.267 108.41L432.588 108.089C432.34 107.842 432.201 107.506 432.201 107.156C432.201 105.637 432.891 103.906 434.154 102.141C435.412 100.382 437.213 98.6249 439.369 97.0638C443.686 93.9377 449.362 91.6402 454.816 91.6402C455.166 91.6402 455.501 91.7792 455.749 92.0266L456.068 91.7071L455.749 92.0266C455.996 92.274 456.135 92.6095 456.135 92.9594C456.135 93.3093 455.996 93.6449 455.749 93.8923L456.071 94.2143L455.749 93.8923C455.501 94.1397 455.166 94.2787 454.816 94.2787C449.654 94.2787 444.682 96.4607 441.009 99.1188C439.17 100.45 437.641 101.91 436.568 103.297C435.509 104.665 434.84 106.029 434.84 107.156C434.84 107.506 434.701 107.842 434.454 108.089Z" fill="#BE927C" stroke="black" stroke-width="0.910734"/>
<path d="M433.519 137.325C433.049 137.325 432.597 137.138 432.265 136.805C431.932 136.472 431.745 136.021 431.745 135.55V99.8097C431.745 95.941 428.419 91.1164 426.598 91.1164C426.127 91.1164 426.598 91.1164 426.143 91.1164C426.143 90.6611 426.143 91.1164 426.143 90.661C426.143 84.6096 435.294 89.162 435.294 99.8097C435.046 136.26 436.359 137.325 433.519 137.325Z" fill="#222222"/>
<path d="M465.464 156.846V158.62H401.578V156.846C401.577 155.044 402.034 153.272 402.904 151.695C403.775 150.118 405.031 148.788 406.556 147.828C408.081 146.869 409.824 146.313 411.623 146.21C413.421 146.108 415.216 146.464 416.84 147.245C418.083 143.819 420.351 140.859 423.336 138.767C426.32 136.676 429.876 135.553 433.521 135.553C437.166 135.553 440.722 136.676 443.706 138.767C446.691 140.859 448.959 143.819 450.202 147.245C451.826 146.464 453.621 146.108 455.419 146.21C457.218 146.313 458.961 146.869 460.486 147.828C462.011 148.788 463.267 150.118 464.138 151.695C465.008 153.272 465.465 155.044 465.464 156.846Z" fill="#222222"/>
<path d="M465.008 156.846V158.165H406.414C406.889 157.053 407.559 156.033 408.394 155.153C409.379 154.116 410.571 153.297 411.893 152.751C413.215 152.204 414.637 151.942 416.067 151.982C417.496 152.021 418.902 152.361 420.192 152.979L420.645 153.196L420.816 152.724C421.818 149.97 423.504 147.515 425.715 145.591C427.925 143.667 430.589 142.337 433.455 141.725C436.322 141.113 439.296 141.239 442.1 142.093C444.879 142.938 447.399 144.47 449.428 146.546C449.537 146.792 449.604 146.97 449.65 147.095C449.657 147.115 449.665 147.134 449.671 147.153C449.688 147.198 449.703 147.241 449.717 147.274C449.732 147.314 449.763 147.393 449.812 147.463C449.877 147.555 450.007 147.676 450.21 147.683C450.34 147.688 450.448 147.639 450.473 147.627C450.475 147.626 450.476 147.626 450.477 147.625C450.496 147.617 450.512 147.609 450.528 147.602C450.576 147.579 450.615 147.561 450.688 147.539L450.714 147.531L450.739 147.52C452.289 146.844 453.983 146.564 455.668 146.705C457.353 146.846 458.976 147.405 460.392 148.33C461.808 149.255 462.971 150.518 463.777 152.004C464.582 153.491 465.006 155.155 465.008 156.846Z" fill="white" stroke="black" stroke-width="0.910734"/>
</svg>
