<?xml version="1.0" encoding="UTF-8" standalone="no"?><!DOCTYPE svg PUBLIC "-//W3C//DTD SVG 1.1//EN" "http://www.w3.org/Graphics/SVG/1.1/DTD/svg11.dtd">
<svg width="100%" height="100%" viewBox="0 0 584 588" version="1.1" xmlns="http://www.w3.org/2000/svg" xmlns:xlink="http://www.w3.org/1999/xlink" xml:space="preserve" xmlns:serif="http://www.serif.com/" style="fill-rule:evenodd;clip-rule:evenodd;" filter="invert(var(--invert_amount))">
  <path d="M69.331,169.747l223.806,-118.347m-223.806,118.347l-0,249.758m-0,-249.758l100.337,125.429m-100.337,-125.429l223.805,-0m-223.805,-0l223.805,125.429m0.001,-243.776l223.437,118.347m-223.437,-118.347l-0.001,118.347m0.001,-118.347l-123.469,243.776m123.469,-243.776l118.778,243.776m104.659,-125.429l0,249.758m0,-249.758l-223.438,-0m223.438,-0l-104.659,125.429m104.659,-125.429l-223.438,125.429m223.438,124.329l-223.449,112.476m223.449,-112.476l-104.659,-124.329m104.659,124.329l-223.438,-0m223.438,-0l-223.438,-124.329m-0.011,236.805l-223.794,-112.476m223.794,112.476l0.011,-112.476m-0.011,112.476l118.79,-236.805m-118.79,236.805l-123.457,-236.805m-100.337,124.329l100.337,-124.329m-100.337,124.329l223.805,-0m-223.805,-0l223.805,-124.329m-123.468,-0l123.468,124.329m-123.468,-124.329l123.468,-125.429m-123.468,125.429l123.468,-0m0,124.329l118.779,-124.329m-118.779,124.329l0,-124.329m118.779,-0l-118.779,-0m118.779,-0l-118.779,-125.429m0,-0l0,125.429" style="fill:none; fill-rule:nonzero; stroke:black; stroke-width:6.04px;"/>
  <path d="M453.647,313.751c-11.042,20.829 -36.917,28.776 -57.747,17.734c-20.83,-11.042 -28.776,-36.917 -17.734,-57.747c11.041,-20.829 36.917,-28.776 57.747,-17.734c20.829,11.042 28.776,36.917 17.734,57.747Z" style="fill:#121212;stroke:#000;stroke-width:6.04px;"/>
  <path d="M330.18,438.781c-11.042,20.829 -36.917,28.776 -57.747,17.734c-20.83,-11.042 -28.776,-36.917 -17.734,-57.747c11.041,-20.829 36.917,-28.776 57.746,-17.734c20.83,11.042 28.777,36.917 17.735,57.747Z" style="fill:#635bff;stroke:#000;stroke-width:6.04px;"/>
  <path d="M206.713,313.751c-11.042,20.829 -36.917,28.776 -57.747,17.734c-20.83,-11.042 -28.776,-36.917 -17.734,-57.747c11.041,-20.829 36.917,-28.776 57.746,-17.734c20.83,11.042 28.777,36.917 17.735,57.747Z" style="fill:#ffe8e8;stroke:#000;stroke-width:6.04px;"/>
  <path d="M330.18,191.844c-11.042,20.829 -36.917,28.776 -57.747,17.734c-20.83,-11.042 -28.776,-36.917 -17.734,-57.747c11.041,-20.83 36.917,-28.776 57.746,-17.734c20.83,11.041 28.777,36.917 17.735,57.747Z" style="fill:#3bdeff;stroke:#000;stroke-width:6.04px;"/>
  <path d="M330.18,77.753c-11.042,20.83 -36.917,28.776 -57.747,17.735c-20.83,-11.042 -28.776,-36.918 -17.734,-57.747c11.041,-20.83 36.917,-28.776 57.746,-17.735c20.83,11.042 28.777,36.918 17.735,57.747Z" style="fill:#1cdb9e;stroke:#000;stroke-width:6.04px;"/>
  <path d="M267.718,343.459c-26.869,-14.244 -37.104,-47.572 -22.86,-74.441c14.243,-26.869 47.571,-37.104 74.44,-22.861c26.869,14.243 37.105,47.571 22.861,74.441c-14.243,26.869 -47.572,37.104 -74.441,22.861Z" style="fill:#fff;fill-rule:nonzero;stroke:#000;stroke-width:6.04px;"/>
  <path d="M330.191,549.759c-11.041,20.83 -36.917,28.776 -57.747,17.735c-20.829,-11.042 -28.776,-36.918 -17.734,-57.747c11.042,-20.83 36.917,-28.776 57.747,-17.735c20.83,11.042 28.776,36.918 17.734,57.747Z" style="fill:#f4900c;stroke:#000;stroke-width:6.04px;"/>
  <path d="M47.39,456.53c-20.844,-11.05 -28.784,-36.903 -17.735,-57.747c11.049,-20.844 36.904,-28.783 57.747,-17.735c20.844,11.05 28.784,36.904 17.735,57.747c-11.05,20.844 -36.904,28.784 -57.747,17.735Z" style="fill:#ffcb57;fill-rule:nonzero;stroke:#000;stroke-width:6.04px;"/>
  <path d="M553.681,191.861c-11.042,20.83 -36.918,28.776 -57.747,17.735c-20.83,-11.042 -28.776,-36.918 -17.735,-57.747c11.042,-20.83 36.918,-28.777 57.747,-17.735c20.83,11.042 28.776,36.918 17.735,57.747Z" style="fill:#3b88c3;stroke:#000;stroke-width:6.04px;"/>
  <path d="M495.933,456.53c-20.846,-11.05 -28.785,-36.903 -17.736,-57.747c11.051,-20.844 36.904,-28.783 57.744,-17.735c20.846,11.05 28.787,36.904 17.736,57.747c-11.051,20.844 -36.904,28.784 -57.744,17.735Z" style="fill:#fb9a99;fill-rule:nonzero;stroke:#000;stroke-width:6.04px;"/>
  <path d="M105.137,191.861c-11.042,20.83 -36.918,28.776 -57.747,17.735c-20.83,-11.042 -28.776,-36.918 -17.735,-57.747c11.042,-20.83 36.918,-28.777 57.747,-17.735c20.83,11.042 28.777,36.918 17.735,57.747Z" style="fill:#1bb186;stroke:#000;stroke-width:6.04px;"/>
</svg>