<svg width="90" height="90" viewBox="0 0 90 90" xmlns="http://www.w3.org/2000/svg" style='fill:black;fill-rule:evenodd;clip-rule:evenodd;stroke-linejoin:round;stroke-miterlimit:2;' filter="invert(var(--invert_amount))">
<path d="M45 -0.000976562C33.0572 0.0576002 21.62 4.82675 13.1736 13.2702C4.6693 22.1355 0 33.4062 0 44.999V89.999H45C50.9088 90.0076 56.7607 88.8442 62.217 86.5763C67.6733 84.3084 72.6256 80.9809 76.7874 76.7864C85.1404 68.4382 89.8292 57.1675 90 44.999V-0.000976562H45ZM49.279 79.0844C52.8517 74.3154 54.8027 68.5273 54.846 62.5686V35.1286H27.4303C21.5305 35.1523 15.7942 37.0695 11.0658 40.598C12.399 38.1243 14.0617 35.8428 16.0084 33.8161C21.3464 28.4944 28.5679 25.4929 36.1054 25.4631H64.5457V53.8497C64.4638 61.3895 61.4709 68.6059 56.1927 73.9906C54.1579 76.0272 51.827 77.7445 49.279 79.0844ZM7.6358 82.3485V62.5686C7.70486 57.3341 9.79179 52.3283 13.4615 48.5949C17.1735 44.8986 22.1919 42.8127 27.4303 42.7888H47.2102V62.515C47.1556 67.764 45.0734 72.7885 41.3992 76.5375C39.5707 78.3816 37.3946 79.8447 34.9968 80.8422C32.5991 81.8397 30.0273 82.3517 27.4303 82.3485H7.6358ZM82.3349 44.9453C82.3183 51.5687 80.549 58.0696 77.207 63.788C73.8649 69.5064 69.069 74.2384 63.3064 77.5036C68.9777 70.9408 72.1335 62.5768 72.2108 53.9034V17.798H36.1054C27.5354 17.8397 19.256 20.9088 12.7296 26.4633C14.3735 23.6219 16.3523 20.9879 18.6235 18.6177C25.6303 11.6339 35.1073 7.69309 45 7.64946H82.3496L82.3349 44.9453Z"/>
</svg>
