<svg width="269" height="257" viewBox="0 0 269 257" fill="none" xmlns="http://www.w3.org/2000/svg" filter="invert(var(--invert_amount))">
<g filter="url(#filter0_d_3873_239)">
<circle cx="60" cy="193" r="60" fill="white"/>
<circle cx="60" cy="193" r="59.5" stroke="black"/>
</g>
<path d="M59.9986 155.66C50.0887 155.708 40.5982 159.666 33.5895 166.672C26.5327 174.028 22.6582 183.381 22.6582 193V230.34H59.9986C64.9017 230.348 69.7575 229.382 74.2851 227.5C78.8126 225.618 82.922 222.857 86.3754 219.377C93.3066 212.45 97.1974 203.097 97.3391 193V155.66H59.9986ZM63.5493 221.284C66.5139 217.326 68.1328 212.524 68.1688 207.579V184.81H45.4195C40.524 184.829 35.764 186.42 31.8405 189.348C32.9468 187.296 34.3264 185.402 35.9417 183.721C40.3711 179.305 46.3635 176.814 52.618 176.789H76.2174V200.344C76.1494 206.601 73.666 212.589 69.2862 217.057C67.5978 218.747 65.6636 220.172 63.5493 221.284ZM28.9943 223.992V207.579C29.0516 203.236 30.7833 199.082 33.8283 195.984C36.9086 192.917 41.0727 191.186 45.4195 191.166H61.8327V207.535C61.7873 211.89 60.0596 216.059 57.0107 219.17C55.4935 220.701 53.6878 221.915 51.6981 222.742C49.7085 223.57 47.5745 223.995 45.4195 223.992H28.9943ZM90.9787 192.956C90.9648 198.452 89.4968 203.846 86.7236 208.591C83.9504 213.336 79.9708 217.263 75.1891 219.972C79.8951 214.526 82.5136 207.586 82.5778 200.389V170.429H52.618C45.5068 170.464 38.6366 173.01 33.2211 177.619C34.5852 175.262 36.2271 173.076 38.1118 171.109C43.9259 165.314 51.7898 162.044 59.9986 162.008H90.9908L90.9787 192.956Z" fill="black"/>
<g filter="url(#filter1_d_3873_239)">
<circle cx="203" cy="193" r="60" fill="white"/>
<circle cx="203" cy="193" r="59.5" stroke="black"/>
</g>
<path d="M202.999 155.66C193.089 155.708 183.598 159.666 176.589 166.672C169.533 174.028 165.658 183.381 165.658 193V230.34H202.999C207.902 230.348 212.758 229.382 217.285 227.5C221.813 225.618 225.922 222.857 229.375 219.377C236.307 212.45 240.197 203.097 240.339 193V155.66H202.999ZM206.549 221.284C209.514 217.326 211.133 212.524 211.169 207.579V184.81H188.42C183.524 184.829 178.764 186.42 174.84 189.348C175.947 187.296 177.326 185.402 178.942 183.721C183.371 179.305 189.363 176.814 195.618 176.789H219.217V200.344C219.149 206.601 216.666 212.589 212.286 217.057C210.598 218.747 208.664 220.172 206.549 221.284ZM171.994 223.992V207.579C172.052 203.236 173.783 199.082 176.828 195.984C179.909 192.917 184.073 191.186 188.42 191.166H204.833V207.535C204.787 211.89 203.06 216.059 200.011 219.17C198.493 220.701 196.688 221.915 194.698 222.742C192.709 223.57 190.574 223.995 188.42 223.992H171.994ZM233.979 192.956C233.965 198.452 232.497 203.846 229.724 208.591C226.95 213.336 222.971 217.263 218.189 219.972C222.895 214.526 225.514 207.586 225.578 200.389V170.429H195.618C188.507 170.464 181.637 173.01 176.221 177.619C177.585 175.262 179.227 173.076 181.112 171.109C186.926 165.314 194.79 162.044 202.999 162.008H233.991L233.979 192.956Z" fill="#29B65F"/>
<g filter="url(#filter2_d_3873_239)">
<circle cx="203" cy="60" r="60" fill="white"/>
<circle cx="203" cy="60" r="59.5" stroke="black"/>
</g>
<path d="M202.999 22.6597C193.089 22.7083 183.598 26.6657 176.589 33.6719C169.533 41.0282 165.658 50.3806 165.658 60.0001V97.3405H202.999C207.902 97.3476 212.758 96.3823 217.285 94.5004C221.813 92.6185 225.922 89.8574 229.375 86.3768C236.307 79.4496 240.197 70.0973 240.339 60.0001V22.6597H202.999ZM206.549 88.2837C209.514 84.3265 211.133 79.5236 211.169 74.5791V51.8097H188.42C183.524 51.8294 178.764 53.4203 174.84 56.3482C175.947 54.2955 177.326 52.4024 178.942 50.7206C183.371 46.3048 189.363 43.8142 195.618 43.7894H219.217V67.3443C219.149 73.6007 216.666 79.5888 212.286 84.057C210.598 85.7469 208.664 87.1719 206.549 88.2837ZM171.994 90.9922V74.5791C172.052 70.2356 173.783 66.0818 176.828 62.9839C179.909 59.9167 184.073 58.1859 188.42 58.166H204.833V74.5346C204.787 78.8902 203.06 83.0595 200.011 86.1703C198.493 87.7006 196.688 88.9146 194.698 89.7423C192.709 90.57 190.574 90.9948 188.42 90.9922H171.994ZM233.979 59.9555C233.965 65.4515 232.497 70.8459 229.724 75.591C226.95 80.336 222.971 84.2626 218.189 86.972C222.895 81.5262 225.514 74.5859 225.578 67.3888V37.429H195.618C188.507 37.4636 181.637 40.0104 176.221 44.6194C177.585 42.2616 179.227 40.0759 181.112 38.1092C186.926 32.3142 194.79 29.0441 202.999 29.0079H233.991L233.979 59.9555Z" fill="url(#paint0_linear_3873_239)" fill-opacity="0.8"/>
<g filter="url(#filter3_d_3873_239)">
<circle cx="60" cy="60" r="60" fill="white"/>
<circle cx="60" cy="60" r="59.5" stroke="black"/>
</g>
<path d="M59.9986 22.6597C50.0887 22.7083 40.5982 26.6657 33.5895 33.6719C26.5327 41.0282 22.6582 50.3806 22.6582 60.0001V97.3405H59.9986C64.9017 97.3476 69.7575 96.3823 74.2851 94.5004C78.8126 92.6185 82.922 89.8574 86.3754 86.3768C93.3066 79.4496 97.1974 70.0973 97.3391 60.0001V22.6597H59.9986ZM63.5493 88.2837C66.5139 84.3265 68.1328 79.5236 68.1688 74.5791V51.8097H45.4195C40.524 51.8294 35.764 53.4203 31.8405 56.3482C32.9468 54.2955 34.3264 52.4024 35.9417 50.7206C40.3711 46.3048 46.3635 43.8142 52.618 43.7894H76.2174V67.3443C76.1494 73.6007 73.666 79.5888 69.2862 84.057C67.5978 85.7469 65.6636 87.1719 63.5493 88.2837ZM28.9943 90.9922V74.5791C29.0516 70.2356 30.7833 66.0818 33.8283 62.9839C36.9086 59.9167 41.0727 58.1859 45.4195 58.166H61.8327V74.5346C61.7873 78.8902 60.0596 83.0595 57.0107 86.1703C55.4935 87.7006 53.6878 88.9146 51.6981 89.7423C49.7085 90.57 47.5745 90.9948 45.4195 90.9922H28.9943ZM90.9787 59.9555C90.9648 65.4515 89.4968 70.8459 86.7236 75.591C83.9504 80.336 79.9708 84.2626 75.1891 86.972C79.8951 81.5262 82.5136 74.5859 82.5778 67.3888V37.429H52.618C45.5068 37.4636 38.6366 40.0104 33.2211 44.6194C34.5852 42.2616 36.2271 40.0759 38.1118 38.1092C43.9259 32.3142 51.7898 29.0441 59.9986 29.0079H90.9908L90.9787 59.9555Z" fill="url(#paint1_linear_3873_239)" fill-opacity="0.5"/>
<defs>
<filter id="filter0_d_3873_239" x="0" y="133" width="126" height="124" filterUnits="userSpaceOnUse" color-interpolation-filters="sRGB">
<feFlood flood-opacity="0" result="BackgroundImageFix"/>
<feColorMatrix in="SourceAlpha" type="matrix" values="0 0 0 0 0 0 0 0 0 0 0 0 0 0 0 0 0 0 127 0" result="hardAlpha"/>
<feOffset dx="6" dy="4"/>
<feComposite in2="hardAlpha" operator="out"/>
<feColorMatrix type="matrix" values="0 0 0 0 0 0 0 0 0 0 0 0 0 0 0 0 0 0 1 0"/>
<feBlend mode="normal" in2="BackgroundImageFix" result="effect1_dropShadow_3873_239"/>
<feBlend mode="normal" in="SourceGraphic" in2="effect1_dropShadow_3873_239" result="shape"/>
</filter>
<filter id="filter1_d_3873_239" x="143" y="133" width="126" height="124" filterUnits="userSpaceOnUse" color-interpolation-filters="sRGB">
<feFlood flood-opacity="0" result="BackgroundImageFix"/>
<feColorMatrix in="SourceAlpha" type="matrix" values="0 0 0 0 0 0 0 0 0 0 0 0 0 0 0 0 0 0 127 0" result="hardAlpha"/>
<feOffset dx="6" dy="4"/>
<feComposite in2="hardAlpha" operator="out"/>
<feColorMatrix type="matrix" values="0 0 0 0 0 0 0 0 0 0 0 0 0 0 0 0 0 0 1 0"/>
<feBlend mode="normal" in2="BackgroundImageFix" result="effect1_dropShadow_3873_239"/>
<feBlend mode="normal" in="SourceGraphic" in2="effect1_dropShadow_3873_239" result="shape"/>
</filter>
<filter id="filter2_d_3873_239" x="143" y="0" width="126" height="124" filterUnits="userSpaceOnUse" color-interpolation-filters="sRGB">
<feFlood flood-opacity="0" result="BackgroundImageFix"/>
<feColorMatrix in="SourceAlpha" type="matrix" values="0 0 0 0 0 0 0 0 0 0 0 0 0 0 0 0 0 0 127 0" result="hardAlpha"/>
<feOffset dx="6" dy="4"/>
<feComposite in2="hardAlpha" operator="out"/>
<feColorMatrix type="matrix" values="0 0 0 0 0 0 0 0 0 0 0 0 0 0 0 0 0 0 1 0"/>
<feBlend mode="normal" in2="BackgroundImageFix" result="effect1_dropShadow_3873_239"/>
<feBlend mode="normal" in="SourceGraphic" in2="effect1_dropShadow_3873_239" result="shape"/>
</filter>
<filter id="filter3_d_3873_239" x="0" y="0" width="126" height="124" filterUnits="userSpaceOnUse" color-interpolation-filters="sRGB">
<feFlood flood-opacity="0" result="BackgroundImageFix"/>
<feColorMatrix in="SourceAlpha" type="matrix" values="0 0 0 0 0 0 0 0 0 0 0 0 0 0 0 0 0 0 127 0" result="hardAlpha"/>
<feOffset dx="6" dy="4"/>
<feComposite in2="hardAlpha" operator="out"/>
<feColorMatrix type="matrix" values="0 0 0 0 0 0 0 0 0 0 0 0 0 0 0 0 0 0 1 0"/>
<feBlend mode="normal" in2="BackgroundImageFix" result="effect1_dropShadow_3873_239"/>
<feBlend mode="normal" in="SourceGraphic" in2="effect1_dropShadow_3873_239" result="shape"/>
</filter>
<linearGradient id="paint0_linear_3873_239" x1="202.999" y1="22.6597" x2="202.999" y2="97.3405" gradientUnits="userSpaceOnUse">
<stop stop-color="#ECDA0E"/>
<stop offset="0.421875" stop-color="#E2B23C"/>
<stop offset="1" stop-color="#FFCB57"/>
</linearGradient>
<linearGradient id="paint1_linear_3873_239" x1="22.5751" y1="60.9576" x2="121.42" y2="60.9531" gradientUnits="userSpaceOnUse">
<stop stop-color="#3BDEFF"/>
<stop offset="1" stop-color="#F02828"/>
</linearGradient>
</defs>
</svg>
