<?xml version="1.0" encoding="UTF-8" standalone="no"?><!DOCTYPE svg PUBLIC "-//W3C//DTD SVG 1.1//EN" "http://www.w3.org/Graphics/SVG/1.1/DTD/svg11.dtd"><svg width="100%" height="100%" viewBox="0 0 2084 2084" version="1.1" xmlns="http://www.w3.org/2000/svg" xmlns:xlink="http://www.w3.org/1999/xlink" xml:space="preserve" xmlns:serif="http://www.serif.com/" style="fill-rule:evenodd;clip-rule:evenodd;stroke-linejoin:round;stroke-miterlimit:2;"><circle cx="1041.67" cy="1041.67" r="1041.67" style="fill:#ff0420;"/><path d="M738.054,1318.53c-62.025,0 -112.842,-14.596 -152.454,-43.783c-39.092,-29.709 -58.637,-71.925 -58.637,-126.655c-0,-11.466 1.304,-25.541 3.908,-42.22c6.779,-37.525 16.421,-82.613 28.929,-135.255c35.442,-143.333 126.917,-215 274.421,-215c40.133,0 76.096,6.775 107.892,20.325c31.795,13.03 56.812,32.838 75.054,59.421c18.241,26.059 27.366,57.334 27.366,93.817c0,10.946 -1.304,24.758 -3.912,41.437c-7.817,46.388 -17.2,91.475 -28.146,135.255c-18.242,71.408 -49.775,124.833 -94.6,160.275c-44.825,34.92 -104.763,52.383 -179.821,52.383Zm10.946,-112.583c29.192,-0 53.946,-8.6 74.275,-25.8c20.85,-17.2 35.704,-43.521 44.563,-78.963c11.987,-48.996 21.112,-91.737 27.366,-128.221c2.083,-10.946 3.125,-22.15 3.125,-33.621c0,-47.429 -24.758,-71.145 -74.271,-71.145c-29.191,-0 -54.208,8.6 -75.058,25.8c-20.325,17.204 -34.921,43.525 -43.779,78.966c-9.384,34.921 -18.767,77.663 -28.146,128.221c-2.088,10.421 -3.129,21.367 -3.129,32.833c-0,47.955 25.021,71.93 75.054,71.93Z" style="fill:#fff;fill-rule:nonzero;"/><path d="M1080.43,1310.71c-5.733,0 -10.167,-1.825 -13.292,-5.475c-2.608,-4.171 -3.387,-8.858 -2.345,-14.071l107.891,-508.187c1.042,-5.733 3.909,-10.425 8.6,-14.075c4.692,-3.646 9.642,-5.471 14.854,-5.471l207.967,0c57.854,0 104.242,11.988 139.163,35.963c35.445,23.979 53.166,58.637 53.166,103.983c0,13.029 -1.562,26.583 -4.691,40.654c-13.03,59.942 -39.35,104.246 -78.963,132.913c-39.091,28.666 -92.779,43 -161.058,43l-105.546,-0l-35.963,171.22c-1.045,5.734 -3.912,10.421 -8.6,14.071c-4.691,3.65 -9.645,5.475 -14.854,5.475l-106.329,0Zm276.767,-298.658c21.887,0 40.912,-5.996 57.071,-17.983c16.679,-11.988 27.625,-29.188 32.837,-51.6c1.563,-8.863 2.346,-16.68 2.346,-23.455c-0,-15.116 -4.429,-26.583 -13.292,-34.399c-8.862,-8.342 -23.975,-12.509 -45.346,-12.509l-93.82,0l-29.709,139.946l89.913,0Z" style="fill:#fff;fill-rule:nonzero;"/></svg>