<?xml version="1.0" encoding="UTF-8" standalone="no"?><!DOCTYPE svg PUBLIC "-//W3C//DTD SVG 1.1//EN" "http://www.w3.org/Graphics/SVG/1.1/DTD/svg11.dtd"><svg width="100%" height="100%" viewBox="0 0 8000 5000" version="1.1" xmlns="http://www.w3.org/2000/svg" xmlns:xlink="http://www.w3.org/1999/xlink" xml:space="preserve" preserveAspectRatio="xMidYMid slice" xmlns:serif="http://www.serif.com/" style="fill-rule:evenodd;clip-rule:evenodd;stroke-linejoin:round;stroke-miterlimit:2;"><path d="M0,522.222l1744.44,69.444l2883.33,102.778l3372.22,-172.222l0,3440.23l-1800.8,309.766l-4002.36,-145.638l-2196.85,145.638l0,-3750Z" style="fill-opacity:0.75;fill-rule:nonzero;"/><path d="M7493.94,4335.57l-1567.89,-47.718l-2765.32,149.738l-1059.11,172.33l-2101.62,378.972l0,-1262.26l4845,147.722l3155,-630.013l0,1005.66l-506.056,85.564Z" style="fill-opacity:0.25;fill-rule:nonzero;"/><path d="M-0,4250l2073.97,24.472l2765.3,96.823l1059.12,111.432l2101.61,245.051l0,-828.197l-5443.83,159.208l-2556.17,191.211Z" style="fill-opacity:0.25;fill-rule:nonzero;"/><path d="M506.049,653.327l1567.92,47.716l2765.3,-149.738l1059.12,-172.331l2101.61,-378.974l0,866.821l-3639.31,-127.933l-4360.69,-0l506.049,-85.561Z" style="fill-opacity:0.5;fill-rule:nonzero;"/></svg>