<?xml version="1.0" encoding="UTF-8" standalone="no"?><!DOCTYPE svg PUBLIC "-//W3C//DTD SVG 1.1//EN" "http://www.w3.org/Graphics/SVG/1.1/DTD/svg11.dtd"><svg width="100%" height="100%" viewBox="0 0 8000 4500" version="1.1" xmlns="http://www.w3.org/2000/svg" xmlns:xlink="http://www.w3.org/1999/xlink" xml:space="preserve" preserveAspectRatio="none" xmlns:serif="http://www.serif.com/" style="fill-rule:evenodd;clip-rule:evenodd;stroke-linejoin:round;stroke-miterlimit:2;"><path d="M0,3643.91l506.049,-87.064l1567.92,48.557l2765.3,-152.361l1059.08,-175.344l2101.65,-385.603l-0,751.815l-506.035,87.062l-1567.94,-48.554l-2765.29,152.359l-1059.11,175.345l-2101.62,385.603l-0,-751.815" style="fill:#fff;fill-opacity:0.5;fill-rule:nonzero;"/><path d="M-0,3646.44l-0,-855.163l970.874,227.706l1120.67,84.336l2638.01,70.841l1669.92,349.151l1600.53,123.129l0,850.102l-970.879,-226.359l-1120.67,-83.836l-2638,-70.423l-1669.9,-347.083l-1600.55,-122.401" style="fill:#fff;fill-opacity:0.85;fill-rule:nonzero;"/><path d="M0,480.701l761.111,264.55l1863.89,-150.264l3050,63.492l1333.33,364.021l991.667,-175.662l-0,2888.89l-2512.29,161.974l-3033.26,-313.258l-2454.46,151.284l-0,-3255.03Z" style="fill:#fff;fill-opacity:0.85;fill-rule:nonzero;"/><path d="M506.049,955.638l1567.92,48.389l2765.3,-151.833l1059.12,-174.735l2101.61,-384.265l0,749.205l-1169.44,0l-1168.94,78.306l-939.795,-78.306l-4215.77,78.306l-506.049,-78.306l506.049,-86.761Z" style="fill:#fff;fill-opacity:0.5;fill-rule:nonzero;"/></svg>