<?xml version="1.0" encoding="UTF-8" standalone="no"?><!DOCTYPE svg PUBLIC "-//W3C//DTD SVG 1.1//EN" "http://www.w3.org/Graphics/SVG/1.1/DTD/svg11.dtd"><svg width="100%" height="100%" viewBox="0 0 8000 4500" version="1.1" xmlns="http://www.w3.org/2000/svg" xmlns:xlink="http://www.w3.org/1999/xlink" xml:space="preserve" preserveAspectRatio="none" xmlns:serif="http://www.serif.com/" style="fill-rule:evenodd;clip-rule:evenodd;stroke-linejoin:round;stroke-miterlimit:2;"><path d="M0,882.386l2683.33,-38.889l2711.11,352.778l2605.56,-125l0,2500l-1347.22,-111.111l-2058.33,111.111l-1663.89,-258.333l-1822.22,38.888l-1108.33,219.445l0,-2688.89Z" style="fill:#fff;fill-opacity:0.76;fill-rule:nonzero;"/><path d="M7493.94,3308.23l-1567.89,-47.718l-2765.32,149.738l-3160.73,434.689l0,-622.273l6792.32,-214.065l1207.68,214.065l-506.056,85.564Z" style="fill:#fff;fill-opacity:0.5;fill-rule:nonzero;"/><path d="M506.049,3283.37l1567.92,-30.856l2765.3,96.824l3160.73,495.598l0,-996.857l-1620.8,173.539l-3255.45,-173.539l-2617.7,160.519l-506.049,219.445l506.049,55.327Z" style="fill:#fff;fill-opacity:0.5;fill-rule:nonzero;"/><path d="M0,311.553l973.928,225.415l1124.19,83.487l2646.31,70.13l1836.9,220.968l1418.67,-220.968l0,640.389l-2605.56,-134.699l-2711.11,-352.778l-2683.33,352.778l0,-884.722Z" style="fill:#fff;fill-opacity:0.85;fill-rule:nonzero;"/></svg>